<?xml version="1.0" encoding="UTF-8" standalone="no"?> <svg id="Capa_1" enable-background="new 0 0 511.298 511.298" height="512" viewBox="0 0 511.298 511.298" width="512" xmlns="http://www.w3.org/2000/svg"><g><g><path d="m474.183 351.282-456.15 152.1c-6.25 2.09-12.2-3.87-10.12-10.12l152.11-456.15z" fill="#ffe17d"/><path d="m474.183 351.282-456.15 152.1c-6.25 2.09-12.2-3.87-10.12-10.12l3.78-11.34 444.81-148.32z" fill="#ffd164"/><circle cx="322.365" cy="214.109" fill="#ff8087" r="50.755"/><path d="m188.855 133.736 13.779-41.321c1.353-4.057 5.739-6.249 9.796-4.896l41.322 13.779c4.057 1.353 6.249 5.739 4.896 9.796l-13.779 41.322c-1.353 4.057-5.738 6.249-9.796 4.896l-41.322-13.779c-4.057-1.354-6.249-5.739-4.896-9.797z" fill="#b4e6a0"/><path d="m258.643 111.092-13.77 41.32c-1.36 4.06-5.74 6.25-9.8 4.9l-41.32-13.78c-4.06-1.35-6.25-5.74-4.9-9.8l1.09-3.26 27.45 9.16c4.06 1.35 8.45-.84 9.8-4.9l12.69-38.06 13.87 4.63c4.06 1.35 6.25 5.73 4.89 9.79z" fill="#96d7a5"/><path d="m358.253 250.002c-19.82 19.82-51.96 19.82-71.78 0-3.05-3.05-5.63-6.39-7.74-9.94 19.48 11.61 45.07 9.03 61.84-7.74s19.35-42.36 7.74-61.84c3.55 2.11 6.89 4.69 9.94 7.74 19.82 19.82 19.82 51.95 0 71.78z" fill="#e6646e"/><path d="m385.163 376.942-3.89 5.32-58.53 19.52-20.9-15.28c-1.72-1.27-2.1-3.69-.84-5.41l10.18-13.92c1.26-1.73.89-4.15-.84-5.41l-28.07-20.53c-1.73-1.27-2.11-3.69-.84-5.41l16.31-22.31c1.26-1.73 3.69-2.1 5.41-.84l28.08 20.53c1.72 1.26 4.14.89 5.41-.84l10.17-13.91c1.27-1.73 3.69-2.11 5.41-.84l26.77 19.57c12.69 9.28 15.45 27.08 6.17 39.76z" fill="#eef5ff"/><path d="m453.653 367.046c-81.271-123.051-186.351-228.13-309.401-309.401-5.551-3.666-7.06-11.144-3.363-16.674 6.274-9.383 12.547-18.765 18.821-28.148 3.67-5.489 11.086-6.982 16.597-3.347 129.521 85.429 240.086 195.994 325.514 325.515 3.635 5.512 2.142 12.927-3.347 16.597-9.383 6.274-18.765 12.547-28.148 18.821-5.529 3.698-13.007 2.188-16.673-3.363z" fill="#ffe8c8"/><path d="m155.923 271.272c-20.97 20.97-52.87 24.35-77.36 10.14l39.66-118.96c13.78 1.63 27.13 7.73 37.7 18.3 25 25 25 65.53 0 90.52z" fill="#ff8087"/><path d="m91.853 339.132v43.56c0 4.27-3.46 7.74-7.74 7.74h-41.91l19.69-59.05h22.22c4.28 0 7.74 3.47 7.74 7.75z" fill="#b4e6a0"/><path d="m211.058 335.375-22.836-16.701c-8.564-6.264-10.429-18.284-4.166-26.848l16.591-22.686c1.262-1.726 3.685-2.102 5.411-.84l9.513 6.957c1.726 1.262 4.149.886 5.411-.84l15.052-20.581c1.262-1.726 3.685-2.102 5.411-.84l16.073 11.755c1.726 1.262 2.102 3.685.84 5.411l-15.052 20.581c-1.262 1.726-.886 4.149.84 5.411l9.513 6.957c1.726 1.262 2.102 3.685.84 5.411l-16.591 22.686c-6.266 8.566-18.286 10.431-26.85 4.167z" fill="#eef5ff"/><path d="m223.633 434.832-83.52 27.84c-.72-.64-1.43-1.31-2.12-2-19.82-19.82-19.82-51.95 0-71.77 19.82-19.83 51.96-19.83 71.78 0 12.48 12.48 17.1 29.83 13.86 45.93z" fill="#ff8087"/><path d="m498.473 351.592c-9.38 6.27-18.76 12.54-28.15 18.82-5.53 3.69-13 2.19-16.67-3.37-2.78-4.21-5.58-8.39-8.42-12.55 2.73.09 5.61-.73 8.16-2.51 10.24-7.12 20.47-14.25 30.71-21.38 4.41-3.07 6.65-8.17 6.1-12.88 3.93 5.72 7.8 11.48 11.62 17.27 3.63 5.51 2.14 12.93-3.35 16.6z" fill="#fdd9b4"/><path d="m91.853 339.132v43.56c0 4.27-3.46 7.74-7.74 7.74h-41.91l5.9-17.68h18.33c4.28 0 7.74-3.47 7.74-7.74v-33.63h9.94c4.28 0 7.74 3.47 7.74 7.75z" fill="#96d7a5"/><path d="m243.303 290.742c-1.26 1.73-.88 4.15.84 5.41l9.52 6.96c1.72 1.26 2.1 3.69.83 5.41l-16.59 22.69c-6.26 8.56-18.28 10.43-26.85 4.16l-22.83-16.7c-3.49-2.55-5.87-6.05-7.03-9.89l12.19 8.92c8.56 6.26 20.58 4.39 26.85-4.17l16.59-22.69c1.26-1.72.88-4.14-.84-5.41l-9.52-6.95c-1.72-1.27-2.1-3.69-.84-5.42l15.01-20.51c.28.11.55.26.81.45l16.07 11.75c1.73 1.26 2.11 3.69.84 5.41z" fill="#dfe9fb"/><path d="m155.923 271.272c-20.97 20.97-52.87 24.35-77.36 10.14l3.35-10.04c19.84 3.48 41.01-2.46 56.33-17.78 21.97-21.96 24.63-55.92 7.98-80.8 3.42 2.28 6.67 4.94 9.7 7.96 25 25 25 65.53 0 90.52z" fill="#e6646e"/><path d="m385.163 376.942-3.89 5.32-58.53 19.52-20.9-15.28c-.39-.29-.71-.63-.95-1.01l89.41-29.81c1.15 7.22-.48 14.89-5.14 21.26z" fill="#dfe9fb"/><path d="m223.633 434.822v.01l-83.52 27.84c-.72-.64-1.43-1.31-2.12-2-5.04-5.04-8.8-10.88-11.27-17.11l96.15-32.06c2.06 7.62 2.31 15.61.76 23.32z" fill="#e6646e"/></g><g><path d="m508.084 330.855c-10.84-16.439-22.323-32.911-34.13-48.956-2.455-3.337-7.15-4.05-10.486-1.596-3.336 2.455-4.05 7.15-1.595 10.486 11.655 15.839 22.99 32.097 33.692 48.328 1.362 2.063.799 4.859-1.247 6.229-5.833 3.895-11.662 7.793-17.489 11.69l-10.667 7.133c-1.001.67-2.203.904-3.383.671-1.184-.238-2.203-.925-2.868-1.931-40.723-61.657-87.821-119.371-139.988-171.538-52.166-52.165-109.879-99.264-171.533-139.983-1.009-.667-1.696-1.687-1.934-2.871-.237-1.18.001-2.381.673-3.385l6.926-10.357c3.966-5.93 7.933-11.861 11.89-17.787 1.376-2.054 4.172-2.617 6.239-1.253 102.516 67.622 192.899 150.846 268.64 247.359 2.557 3.259 7.271 3.826 10.53 1.271 3.258-2.558 3.827-7.272 1.27-10.53-76.741-97.788-168.315-182.109-272.177-250.619-8.921-5.892-21.016-3.458-26.971 5.433-3.961 5.932-7.926 11.86-11.89 17.787l-6.925 10.357c-2.907 4.343-3.94 9.557-2.91 14.681 1.031 5.127 4.002 9.54 8.37 12.428.839.554 1.668 1.121 2.505 1.677l-114.048 342.013c-1.311 3.929.813 8.177 4.742 9.487.788.262 1.587.387 2.374.387 3.14 0 6.066-1.987 7.114-5.13l4.806-14.412h36.499c8.409 0 15.25-6.837 15.25-15.24v-43.561c0-8.403-6.841-15.239-15.25-15.239h-11.81l10.65-31.937c8.883 3.739 18.284 5.577 27.643 5.577 18.516-.001 36.858-7.175 50.63-20.946 27.884-27.884 27.884-73.254.002-101.135-9.293-9.302-20.624-15.708-33.153-18.814l27.456-82.337c12.38 8.479 24.556 17.19 36.525 26.128l-10.305 30.932c-1.293 3.861-1.004 7.994.814 11.637 1.82 3.646 4.951 6.362 8.815 7.65l41.311 13.777c1.589.531 3.224.796 4.852.796 2.331 0 4.647-.541 6.793-1.613 3.646-1.82 6.364-4.95 7.651-8.813l1.608-4.82c9.025 7.827 17.926 15.785 26.675 23.898-10.418 10.888-16.153 25.119-16.153 40.239 0 15.562 6.059 30.191 17.062 41.193 11.002 11.002 25.63 17.062 41.188 17.062 14.467 0 28.125-5.246 38.816-14.826 27.01 31.132 52.305 63.896 75.821 98.232l-39.991 13.335c3.536-13.827-1.384-29.052-13.583-37.969l-26.783-19.589c-5.071-3.693-12.197-2.579-15.879 2.476l-8.038 10.99-25.146-18.395c-5.039-3.691-12.161-2.598-15.897 2.466l-16.317 22.32c-1.785 2.451-2.514 5.449-2.051 8.442.465 3.009 2.077 5.653 4.525 7.437l25.143 18.39-8.02 10.978c-1.8 2.451-2.536 5.454-2.075 8.457.462 3.003 2.066 5.646 4.522 7.445l9.169 6.706-74.45 24.826c-.169-15.059-6.167-29.599-17.057-40.489-22.713-22.712-59.672-22.712-82.387 0-20.567 20.568-22.509 52.814-5.827 75.592l-111.195 37.078c-.131.043-.295.099-.512-.118s-.162-.381-.117-.516l16.7-50.091c1.311-3.93-.813-8.177-4.743-9.487-3.932-1.308-8.177.814-9.487 4.743l-16.699 50.088c-1.873 5.609-.44 11.69 3.74 15.87 2.966 2.966 6.889 4.548 10.92 4.548 1.65 0 3.318-.266 4.946-.809l425.302-141.817c.557.839 1.125 1.668 1.68 2.509 2.885 4.364 7.298 7.335 12.425 8.365 1.294.261 2.594.39 3.885.39 3.817-.001 7.55-1.126 10.794-3.297l10.667-7.134c5.824-3.895 11.649-7.791 17.489-11.689 8.883-5.95 11.316-18.047 5.427-26.96zm-423.971 8.029c.14 0 .25.105.25.239v43.561c0 .135-.11.24-.25.24h-31.498l14.685-44.04zm66.507-152.837c22.035 22.034 22.035 57.889 0 79.923-16.663 16.662-41.775 21.092-62.902 11.688l35.59-106.731c10.339 2.342 19.692 7.493 27.312 15.12zm158.584 196.539 8.029-10.991c3.701-5.052 2.6-12.179-2.463-15.895l-25.142-18.389 12.027-16.451 25.143 18.392c2.451 1.797 5.458 2.525 8.465 2.061 3-.467 5.639-2.071 7.434-4.522l8.038-10.99 23.842 17.438c9.321 6.813 11.357 19.949 4.544 29.274l-2.472 3.377-52.613 17.544zm-165.908 11.611c16.866-16.867 44.309-16.867 61.174 0 9.262 9.261 13.741 22.08 12.424 34.963l-74.802 24.943c-15.643-16.945-15.247-43.455 1.204-59.906zm94.462-244.155c-.01.029-.03.091-.121.136-.092.047-.151.025-.191.011l-41.322-13.78c-.033-.011-.094-.031-.138-.119-.042-.084-.023-.141-.008-.186l8.702-26.12c12.435 9.571 24.64 19.393 36.611 29.464zm84.61 107.316c-11.552 0-22.413-4.499-30.582-12.669-8.169-8.169-12.668-19.031-12.668-30.586 0-11.265 4.287-21.865 12.072-29.96 20.853 19.887 40.884 40.61 60.086 62.13-7.951 7.164-18.128 11.085-28.908 11.085z"/><path d="m261.948 258.694-16.072-11.754c-2.452-1.794-5.452-2.525-8.458-2.06-3.001.466-5.642 2.073-7.435 4.524l-12.91 17.652-6.583-4.814c-5.061-3.704-12.189-2.597-15.893 2.464l-16.591 22.687c-8.694 11.889-6.096 28.635 5.792 37.329l22.836 16.701c4.626 3.384 10.087 5.157 15.712 5.157 1.377 0 2.766-.106 4.152-.322 7.051-1.094 13.253-4.868 17.465-10.627l16.591-22.686c1.793-2.451 2.524-5.455 2.059-8.457s-2.073-5.643-4.524-7.435l-6.584-4.816 12.911-17.653c3.699-5.06 2.593-12.187-2.468-15.89zm-26.751 36.076c.466 3.002 2.073 5.643 4.524 7.435l6.584 4.816-14.449 19.756c-1.847 2.525-4.566 4.181-7.658 4.66-3.093.475-6.185-.273-8.71-2.12l-22.836-16.701c-5.212-3.813-6.352-11.154-2.54-16.367l14.449-19.757 6.583 4.814c2.452 1.794 5.459 2.528 8.458 2.06 3.002-.466 5.643-2.073 7.435-4.524l12.91-17.652 10.216 7.472-12.91 17.652c-1.791 2.451-2.523 5.454-2.056 8.456z"/></g></g></svg>